<svg width="960" height="560" viewBox="0 0 960 560" xmlns="http://www.w3.org/2000/svg">
  <rect width="960" height="560" rx="24" fill="#fbfcff"/>
  <text x="64" y="78" font-family="Arial, sans-serif" font-size="30" font-weight="700" fill="#243044">Overall Efficiency Summary</text>
  <text x="64" y="112" font-family="Arial, sans-serif" font-size="18" fill="#5f6b7c">A compact comparison of the main trends emphasized by GADO-GS.</text>
  <rect x="78" y="150" width="804" height="316" rx="18" fill="#ffffff" stroke="#d7dee9" stroke-width="2"/>
  <rect x="78" y="150" width="804" height="62" rx="18" fill="#eef3fb"/>
  <g font-family="Arial, sans-serif" font-size="22" font-weight="700" fill="#334055">
    <text x="118" y="190">Metric</text>
    <text x="398" y="190" text-anchor="middle">3DGS</text>
    <text x="590" y="190" text-anchor="middle">Representative Baseline</text>
    <text x="778" y="190" text-anchor="middle" fill="#c76f2f">Ours</text>
  </g>
  <g stroke="#e2e7f0" stroke-width="2">
    <line x1="78" y1="240" x2="882" y2="240"/>
    <line x1="78" y1="300" x2="882" y2="300"/>
    <line x1="78" y1="360" x2="882" y2="360"/>
    <line x1="78" y1="420" x2="882" y2="420"/>
    <line x1="282" y1="150" x2="282" y2="466"/>
    <line x1="482" y1="150" x2="482" y2="466"/>
    <line x1="690" y1="150" x2="690" y2="466"/>
  </g>
  <g font-family="Arial, sans-serif" font-size="22" fill="#334055">
    <text x="118" y="274">Training time</text>
    <text x="118" y="334">Rendering FPS</text>
    <text x="118" y="394">Model size</text>
    <text x="118" y="454">Reconstruction quality</text>
  </g>
  <g font-family="Arial, sans-serif" font-size="22" text-anchor="middle" fill="#48576e">
    <text x="382" y="274">1.0x</text>
    <text x="382" y="334">1.0x</text>
    <text x="382" y="394">1.0x</text>
    <text x="382" y="454">Strong</text>
    <text x="586" y="274">2.1x faster</text>
    <text x="586" y="334">1.8x faster</text>
    <text x="586" y="394">2.4x smaller</text>
    <text x="586" y="454">Strong</text>
  </g>
  <g font-family="Arial, sans-serif" font-size="22" font-weight="700" text-anchor="middle" fill="#c76f2f">
    <text x="786" y="274">10.1x faster</text>
    <text x="786" y="334">7.2x faster</text>
    <text x="786" y="394">8.4x smaller</text>
    <text x="786" y="454">Competitive</text>
  </g>
  <text x="480" y="520" text-anchor="middle" font-family="Arial, sans-serif" font-size="20" fill="#6a7482">Placeholder summary values for page prototyping. Replace with final paper numbers when ready.</text>
</svg>
