<svg width="960" height="560" viewBox="0 0 960 560" xmlns="http://www.w3.org/2000/svg">
  <rect width="960" height="560" rx="24" fill="#fbfcff"/>
  <text x="64" y="78" font-family="Arial, sans-serif" font-size="30" font-weight="700" fill="#243044">SSIM Comparison ↑</text>
  <text x="64" y="112" font-family="Arial, sans-serif" font-size="18" fill="#5f6b7c">Average structural similarity on representative evaluation scenes.</text>
  <line x1="92" y1="450" x2="882" y2="450" stroke="#cfd8e5" stroke-width="2"/>
  <line x1="92" y1="170" x2="92" y2="450" stroke="#cfd8e5" stroke-width="2"/>
  <g font-family="Arial, sans-serif" font-size="18" fill="#6b7482">
    <text x="70" y="455" text-anchor="end">0.80</text>
    <text x="70" y="385" text-anchor="end">0.85</text>
    <text x="70" y="315" text-anchor="end">0.90</text>
    <text x="70" y="245" text-anchor="end">0.95</text>
    <text x="70" y="175" text-anchor="end">1.00</text>
  </g>
  <rect x="170" y="320" width="110" height="130" rx="14" fill="#b9c7dc"/>
  <rect x="340" y="274" width="110" height="176" rx="14" fill="#9ab8da"/>
  <rect x="510" y="240" width="110" height="210" rx="14" fill="#7aa6d1"/>
  <rect x="680" y="208" width="110" height="242" rx="14" fill="#f39b5a"/>
  <g font-family="Arial, sans-serif" font-size="22" font-weight="700" text-anchor="middle">
    <text x="225" y="308" fill="#3b4c63">0.892</text>
    <text x="395" y="262" fill="#3b4c63">0.908</text>
    <text x="565" y="228" fill="#3b4c63">0.920</text>
    <text x="735" y="196" fill="#b05e21">0.934</text>
  </g>
  <g font-family="Arial, sans-serif" font-size="20" fill="#334055" text-anchor="middle">
    <text x="225" y="486">3DGS</text>
    <text x="395" y="486">Mip-Splatting</text>
    <text x="565" y="486">CompactGS</text>
    <text x="735" y="486" font-weight="700">Ours</text>
  </g>
</svg>
