<?xml version="1.0" encoding="UTF-8"?>
<svg xmlns="http://www.w3.org/2000/svg" width="1600" height="860" viewBox="0 0 1600 860">
<rect width="100%" height="100%" fill="#edf3f8"/>
<text x="34.0" y="46.0" font-size="28" fill="#173c68" font-weight="700" text-anchor="start" font-family="Inter, Segoe UI, Arial, sans-serif">N3DV · 3 Views Sparse-View Results</text>
<text x="34.0" y="70.0" font-size="13" fill="#64748b" font-weight="normal" text-anchor="start" font-family="Inter, Segoe UI, Arial, sans-serif">Confirmed MMAsia manuscript measurements</text>
<rect x="28.0" y="82.0" width="372.5" height="364.0" rx="14" fill="#fbfdff" stroke="#dbe5f0"/>
<text x="46.0" y="113.0" font-size="17" fill="#173c68" font-weight="700" text-anchor="start" font-family="Inter, Segoe UI, Arial, sans-serif">PSNR ↑</text>
<line x1="75.0" y1="374.0" x2="384.5" y2="374.0" stroke="#d8e2ee" stroke-dasharray="4 4"/>
<text x="68.0" y="378.0" font-size="11" fill="#64748b" font-weight="normal" text-anchor="end" font-family="Inter, Segoe UI, Arial, sans-serif">0</text>
<line x1="75.0" y1="314.0" x2="384.5" y2="314.0" stroke="#d8e2ee" stroke-dasharray="4 4"/>
<text x="68.0" y="318.0" font-size="11" fill="#64748b" font-weight="normal" text-anchor="end" font-family="Inter, Segoe UI, Arial, sans-serif">9</text>
<line x1="75.0" y1="254.0" x2="384.5" y2="254.0" stroke="#d8e2ee" stroke-dasharray="4 4"/>
<text x="68.0" y="258.0" font-size="11" fill="#64748b" font-weight="normal" text-anchor="end" font-family="Inter, Segoe UI, Arial, sans-serif">18</text>
<line x1="75.0" y1="194.0" x2="384.5" y2="194.0" stroke="#d8e2ee" stroke-dasharray="4 4"/>
<text x="68.0" y="198.0" font-size="11" fill="#64748b" font-weight="normal" text-anchor="end" font-family="Inter, Segoe UI, Arial, sans-serif">27</text>
<line x1="75.0" y1="134.0" x2="384.5" y2="134.0" stroke="#d8e2ee" stroke-dasharray="4 4"/>
<text x="68.0" y="138.0" font-size="11" fill="#64748b" font-weight="normal" text-anchor="end" font-family="Inter, Segoe UI, Arial, sans-serif">36</text>
<rect x="85.8" y="180.5" width="29.9" height="193.5" rx="3" fill="#173c68" stroke="#d4a017" stroke-width="3.0"/>
<rect x="74.3" y="153.5" width="53.0" height="20" rx="6" fill="#fff6d9" stroke="#d4a017" stroke-width="1"/>
<text x="100.8" y="167.5" font-size="11" fill="#6a4800" font-weight="700" text-anchor="middle" font-family="Inter, Segoe UI, Arial, sans-serif">28.84</text>
<text x="96.8" y="396.0" font-size="10.5" fill="#475569" font-weight="normal" text-anchor="end" font-family="Inter, Segoe UI, Arial, sans-serif" transform="rotate(-24 96.8 396.0)">SGS-4DGS</text>
<rect x="137.4" y="189.2" width="29.9" height="184.8" rx="3" fill="#f28b30" stroke="#ffffff" stroke-width="0.5"/>
<text x="148.4" y="396.0" font-size="10.5" fill="#475569" font-weight="normal" text-anchor="end" font-family="Inter, Segoe UI, Arial, sans-serif" transform="rotate(-24 148.4 396.0)">4DGauss</text>
<rect x="189.0" y="203.4" width="29.9" height="170.6" rx="3" fill="#28a39d" stroke="#ffffff" stroke-width="0.5"/>
<text x="200.0" y="396.0" font-size="10.5" fill="#475569" font-weight="normal" text-anchor="end" font-family="Inter, Segoe UI, Arial, sans-serif" transform="rotate(-24 200.0 396.0)">CEM-4DGS</text>
<rect x="240.6" y="205.2" width="29.9" height="168.8" rx="3" fill="#d45555" stroke="#ffffff" stroke-width="0.5"/>
<text x="251.5" y="396.0" font-size="10.5" fill="#475569" font-weight="normal" text-anchor="end" font-family="Inter, Segoe UI, Arial, sans-serif" transform="rotate(-24 251.5 396.0)">Sparse4DGS</text>
<rect x="292.2" y="200.7" width="29.9" height="173.3" rx="3" fill="#7b63c9" stroke="#ffffff" stroke-width="0.5"/>
<text x="303.1" y="396.0" font-size="10.5" fill="#475569" font-weight="normal" text-anchor="end" font-family="Inter, Segoe UI, Arial, sans-serif" transform="rotate(-24 303.1 396.0)">STGS</text>
<rect x="343.7" y="190.8" width="29.9" height="183.2" rx="3" fill="#4e8f2f" stroke="#ffffff" stroke-width="0.5"/>
<text x="354.7" y="396.0" font-size="10.5" fill="#475569" font-weight="normal" text-anchor="end" font-family="Inter, Segoe UI, Arial, sans-serif" transform="rotate(-24 354.7 396.0)">Swift4D</text>
<rect x="418.5" y="82.0" width="372.5" height="364.0" rx="14" fill="#fbfdff" stroke="#dbe5f0"/>
<text x="436.5" y="113.0" font-size="17" fill="#173c68" font-weight="700" text-anchor="start" font-family="Inter, Segoe UI, Arial, sans-serif">SSIM ↑</text>
<line x1="465.5" y1="374.0" x2="775.0" y2="374.0" stroke="#d8e2ee" stroke-dasharray="4 4"/>
<text x="458.5" y="378.0" font-size="11" fill="#64748b" font-weight="normal" text-anchor="end" font-family="Inter, Segoe UI, Arial, sans-serif">0.00</text>
<line x1="465.5" y1="314.0" x2="775.0" y2="314.0" stroke="#d8e2ee" stroke-dasharray="4 4"/>
<text x="458.5" y="318.0" font-size="11" fill="#64748b" font-weight="normal" text-anchor="end" font-family="Inter, Segoe UI, Arial, sans-serif">0.28</text>
<line x1="465.5" y1="254.0" x2="775.0" y2="254.0" stroke="#d8e2ee" stroke-dasharray="4 4"/>
<text x="458.5" y="258.0" font-size="11" fill="#64748b" font-weight="normal" text-anchor="end" font-family="Inter, Segoe UI, Arial, sans-serif">0.56</text>
<line x1="465.5" y1="194.0" x2="775.0" y2="194.0" stroke="#d8e2ee" stroke-dasharray="4 4"/>
<text x="458.5" y="198.0" font-size="11" fill="#64748b" font-weight="normal" text-anchor="end" font-family="Inter, Segoe UI, Arial, sans-serif">0.85</text>
<line x1="465.5" y1="134.0" x2="775.0" y2="134.0" stroke="#d8e2ee" stroke-dasharray="4 4"/>
<text x="458.5" y="138.0" font-size="11" fill="#64748b" font-weight="normal" text-anchor="end" font-family="Inter, Segoe UI, Arial, sans-serif">1.13</text>
<rect x="476.3" y="180.5" width="29.9" height="193.5" rx="3" fill="#173c68" stroke="#d4a017" stroke-width="3.0"/>
<rect x="464.8" y="153.5" width="53.0" height="20" rx="6" fill="#fff6d9" stroke="#d4a017" stroke-width="1"/>
<text x="491.3" y="167.5" font-size="11" fill="#6a4800" font-weight="700" text-anchor="middle" font-family="Inter, Segoe UI, Arial, sans-serif">0.911</text>
<text x="487.3" y="396.0" font-size="10.5" fill="#475569" font-weight="normal" text-anchor="end" font-family="Inter, Segoe UI, Arial, sans-serif" transform="rotate(-24 487.3 396.0)">SGS-4DGS</text>
<rect x="527.9" y="184.5" width="29.9" height="189.5" rx="3" fill="#f28b30" stroke="#ffffff" stroke-width="0.5"/>
<text x="538.9" y="396.0" font-size="10.5" fill="#475569" font-weight="normal" text-anchor="end" font-family="Inter, Segoe UI, Arial, sans-serif" transform="rotate(-24 538.9 396.0)">4DGauss</text>
<rect x="579.5" y="189.4" width="29.9" height="184.6" rx="3" fill="#28a39d" stroke="#ffffff" stroke-width="0.5"/>
<text x="590.5" y="396.0" font-size="10.5" fill="#475569" font-weight="normal" text-anchor="end" font-family="Inter, Segoe UI, Arial, sans-serif" transform="rotate(-24 590.5 396.0)">CEM-4DGS</text>
<rect x="631.1" y="190.4" width="29.9" height="183.6" rx="3" fill="#d45555" stroke="#ffffff" stroke-width="0.5"/>
<text x="642.0" y="396.0" font-size="10.5" fill="#475569" font-weight="normal" text-anchor="end" font-family="Inter, Segoe UI, Arial, sans-serif" transform="rotate(-24 642.0 396.0)">Sparse4DGS</text>
<rect x="682.7" y="188.3" width="29.9" height="185.7" rx="3" fill="#7b63c9" stroke="#ffffff" stroke-width="0.5"/>
<text x="693.6" y="396.0" font-size="10.5" fill="#475569" font-weight="normal" text-anchor="end" font-family="Inter, Segoe UI, Arial, sans-serif" transform="rotate(-24 693.6 396.0)">STGS</text>
<rect x="734.2" y="184.3" width="29.9" height="189.7" rx="3" fill="#4e8f2f" stroke="#ffffff" stroke-width="0.5"/>
<text x="745.2" y="396.0" font-size="10.5" fill="#475569" font-weight="normal" text-anchor="end" font-family="Inter, Segoe UI, Arial, sans-serif" transform="rotate(-24 745.2 396.0)">Swift4D</text>
<rect x="809.0" y="82.0" width="372.5" height="364.0" rx="14" fill="#fbfdff" stroke="#dbe5f0"/>
<text x="827.0" y="113.0" font-size="17" fill="#173c68" font-weight="700" text-anchor="start" font-family="Inter, Segoe UI, Arial, sans-serif">LPIPS ↓</text>
<line x1="856.0" y1="374.0" x2="1165.5" y2="374.0" stroke="#d8e2ee" stroke-dasharray="4 4"/>
<text x="849.0" y="378.0" font-size="11" fill="#64748b" font-weight="normal" text-anchor="end" font-family="Inter, Segoe UI, Arial, sans-serif">0.00</text>
<line x1="856.0" y1="314.0" x2="1165.5" y2="314.0" stroke="#d8e2ee" stroke-dasharray="4 4"/>
<text x="849.0" y="318.0" font-size="11" fill="#64748b" font-weight="normal" text-anchor="end" font-family="Inter, Segoe UI, Arial, sans-serif">0.03</text>
<line x1="856.0" y1="254.0" x2="1165.5" y2="254.0" stroke="#d8e2ee" stroke-dasharray="4 4"/>
<text x="849.0" y="258.0" font-size="11" fill="#64748b" font-weight="normal" text-anchor="end" font-family="Inter, Segoe UI, Arial, sans-serif">0.07</text>
<line x1="856.0" y1="194.0" x2="1165.5" y2="194.0" stroke="#d8e2ee" stroke-dasharray="4 4"/>
<text x="849.0" y="198.0" font-size="11" fill="#64748b" font-weight="normal" text-anchor="end" font-family="Inter, Segoe UI, Arial, sans-serif">0.10</text>
<line x1="856.0" y1="134.0" x2="1165.5" y2="134.0" stroke="#d8e2ee" stroke-dasharray="4 4"/>
<text x="849.0" y="138.0" font-size="11" fill="#64748b" font-weight="normal" text-anchor="end" font-family="Inter, Segoe UI, Arial, sans-serif">0.14</text>
<rect x="866.8" y="263.4" width="29.9" height="110.6" rx="3" fill="#173c68" stroke="#d4a017" stroke-width="3.0"/>
<rect x="855.3" y="236.4" width="53.0" height="20" rx="6" fill="#fff6d9" stroke="#d4a017" stroke-width="1"/>
<text x="881.8" y="250.4" font-size="11" fill="#6a4800" font-weight="700" text-anchor="middle" font-family="Inter, Segoe UI, Arial, sans-serif">0.064</text>
<text x="877.8" y="396.0" font-size="10.5" fill="#475569" font-weight="normal" text-anchor="end" font-family="Inter, Segoe UI, Arial, sans-serif" transform="rotate(-24 877.8 396.0)">SGS-4DGS</text>
<rect x="918.4" y="235.8" width="29.9" height="138.2" rx="3" fill="#f28b30" stroke="#ffffff" stroke-width="0.5"/>
<text x="929.4" y="396.0" font-size="10.5" fill="#475569" font-weight="normal" text-anchor="end" font-family="Inter, Segoe UI, Arial, sans-serif" transform="rotate(-24 929.4 396.0)">4DGauss</text>
<rect x="970.0" y="194.3" width="29.9" height="179.7" rx="3" fill="#28a39d" stroke="#ffffff" stroke-width="0.5"/>
<text x="981.0" y="396.0" font-size="10.5" fill="#475569" font-weight="normal" text-anchor="end" font-family="Inter, Segoe UI, Arial, sans-serif" transform="rotate(-24 981.0 396.0)">CEM-4DGS</text>
<rect x="1021.6" y="180.5" width="29.9" height="193.5" rx="3" fill="#d45555" stroke="#ffffff" stroke-width="0.5"/>
<text x="1032.5" y="396.0" font-size="10.5" fill="#475569" font-weight="normal" text-anchor="end" font-family="Inter, Segoe UI, Arial, sans-serif" transform="rotate(-24 1032.5 396.0)">Sparse4DGS</text>
<rect x="1073.2" y="190.8" width="29.9" height="183.2" rx="3" fill="#7b63c9" stroke="#ffffff" stroke-width="0.5"/>
<text x="1084.1" y="396.0" font-size="10.5" fill="#475569" font-weight="normal" text-anchor="end" font-family="Inter, Segoe UI, Arial, sans-serif" transform="rotate(-24 1084.1 396.0)">STGS</text>
<rect x="1124.7" y="247.8" width="29.9" height="126.2" rx="3" fill="#4e8f2f" stroke="#ffffff" stroke-width="0.5"/>
<text x="1135.7" y="396.0" font-size="10.5" fill="#475569" font-weight="normal" text-anchor="end" font-family="Inter, Segoe UI, Arial, sans-serif" transform="rotate(-24 1135.7 396.0)">Swift4D</text>
<rect x="1199.5" y="82.0" width="372.5" height="364.0" rx="14" fill="#fbfdff" stroke="#dbe5f0"/>
<text x="1217.5" y="113.0" font-size="17" fill="#173c68" font-weight="700" text-anchor="start" font-family="Inter, Segoe UI, Arial, sans-serif">tOF (px) ↓</text>
<line x1="1246.5" y1="374.0" x2="1556.0" y2="374.0" stroke="#d8e2ee" stroke-dasharray="4 4"/>
<text x="1239.5" y="378.0" font-size="11" fill="#64748b" font-weight="normal" text-anchor="end" font-family="Inter, Segoe UI, Arial, sans-serif">0.00</text>
<line x1="1246.5" y1="314.0" x2="1556.0" y2="314.0" stroke="#d8e2ee" stroke-dasharray="4 4"/>
<text x="1239.5" y="318.0" font-size="11" fill="#64748b" font-weight="normal" text-anchor="end" font-family="Inter, Segoe UI, Arial, sans-serif">0.87</text>
<line x1="1246.5" y1="254.0" x2="1556.0" y2="254.0" stroke="#d8e2ee" stroke-dasharray="4 4"/>
<text x="1239.5" y="258.0" font-size="11" fill="#64748b" font-weight="normal" text-anchor="end" font-family="Inter, Segoe UI, Arial, sans-serif">1.75</text>
<line x1="1246.5" y1="194.0" x2="1556.0" y2="194.0" stroke="#d8e2ee" stroke-dasharray="4 4"/>
<text x="1239.5" y="198.0" font-size="11" fill="#64748b" font-weight="normal" text-anchor="end" font-family="Inter, Segoe UI, Arial, sans-serif">2.62</text>
<line x1="1246.5" y1="134.0" x2="1556.0" y2="134.0" stroke="#d8e2ee" stroke-dasharray="4 4"/>
<text x="1239.5" y="138.0" font-size="11" fill="#64748b" font-weight="normal" text-anchor="end" font-family="Inter, Segoe UI, Arial, sans-serif">3.50</text>
<rect x="1257.3" y="255.9" width="29.9" height="118.1" rx="3" fill="#173c68" stroke="#d4a017" stroke-width="3.0"/>
<rect x="1249.9" y="228.9" width="44.8" height="20" rx="6" fill="#fff6d9" stroke="#d4a017" stroke-width="1"/>
<text x="1272.3" y="242.9" font-size="11" fill="#6a4800" font-weight="700" text-anchor="middle" font-family="Inter, Segoe UI, Arial, sans-serif">1.72</text>
<text x="1268.3" y="396.0" font-size="10.5" fill="#475569" font-weight="normal" text-anchor="end" font-family="Inter, Segoe UI, Arial, sans-serif" transform="rotate(-24 1268.3 396.0)">SGS-4DGS</text>
<rect x="1308.9" y="192.1" width="29.9" height="181.9" rx="3" fill="#f28b30" stroke="#ffffff" stroke-width="0.5"/>
<text x="1319.9" y="396.0" font-size="10.5" fill="#475569" font-weight="normal" text-anchor="end" font-family="Inter, Segoe UI, Arial, sans-serif" transform="rotate(-24 1319.9 396.0)">4DGauss</text>
<rect x="1360.5" y="180.5" width="29.9" height="193.5" rx="3" fill="#28a39d" stroke="#ffffff" stroke-width="0.5"/>
<text x="1371.5" y="396.0" font-size="10.5" fill="#475569" font-weight="normal" text-anchor="end" font-family="Inter, Segoe UI, Arial, sans-serif" transform="rotate(-24 1371.5 396.0)">CEM-4DGS</text>
<rect x="1412.1" y="185.3" width="29.9" height="188.7" rx="3" fill="#d45555" stroke="#ffffff" stroke-width="0.5"/>
<text x="1423.0" y="396.0" font-size="10.5" fill="#475569" font-weight="normal" text-anchor="end" font-family="Inter, Segoe UI, Arial, sans-serif" transform="rotate(-24 1423.0 396.0)">Sparse4DGS</text>
<rect x="1463.7" y="196.9" width="29.9" height="177.1" rx="3" fill="#7b63c9" stroke="#ffffff" stroke-width="0.5"/>
<text x="1474.6" y="396.0" font-size="10.5" fill="#475569" font-weight="normal" text-anchor="end" font-family="Inter, Segoe UI, Arial, sans-serif" transform="rotate(-24 1474.6 396.0)">STGS</text>
<rect x="1515.2" y="228.5" width="29.9" height="145.5" rx="3" fill="#4e8f2f" stroke="#ffffff" stroke-width="0.5"/>
<text x="1526.2" y="396.0" font-size="10.5" fill="#475569" font-weight="normal" text-anchor="end" font-family="Inter, Segoe UI, Arial, sans-serif" transform="rotate(-24 1526.2 396.0)">Swift4D</text>
<rect x="28.0" y="464.0" width="372.5" height="364.0" rx="14" fill="#fbfdff" stroke="#dbe5f0"/>
<text x="46.0" y="495.0" font-size="17" fill="#173c68" font-weight="700" text-anchor="start" font-family="Inter, Segoe UI, Arial, sans-serif">Optimization Time (s) ↓ · log</text>
<line x1="75.0" y1="756.0" x2="384.5" y2="756.0" stroke="#d8e2ee" stroke-dasharray="4 4"/>
<text x="68.0" y="760.0" font-size="11" fill="#64748b" font-weight="normal" text-anchor="end" font-family="Inter, Segoe UI, Arial, sans-serif">930</text>
<line x1="75.0" y1="696.0" x2="384.5" y2="696.0" stroke="#d8e2ee" stroke-dasharray="4 4"/>
<text x="68.0" y="700.0" font-size="11" fill="#64748b" font-weight="normal" text-anchor="end" font-family="Inter, Segoe UI, Arial, sans-serif">1.9k</text>
<line x1="75.0" y1="636.0" x2="384.5" y2="636.0" stroke="#d8e2ee" stroke-dasharray="4 4"/>
<text x="68.0" y="640.0" font-size="11" fill="#64748b" font-weight="normal" text-anchor="end" font-family="Inter, Segoe UI, Arial, sans-serif">3.9k</text>
<line x1="75.0" y1="576.0" x2="384.5" y2="576.0" stroke="#d8e2ee" stroke-dasharray="4 4"/>
<text x="68.0" y="580.0" font-size="11" fill="#64748b" font-weight="normal" text-anchor="end" font-family="Inter, Segoe UI, Arial, sans-serif">8.0k</text>
<line x1="75.0" y1="516.0" x2="384.5" y2="516.0" stroke="#d8e2ee" stroke-dasharray="4 4"/>
<text x="68.0" y="520.0" font-size="11" fill="#64748b" font-weight="normal" text-anchor="end" font-family="Inter, Segoe UI, Arial, sans-serif">16.3k</text>
<rect x="85.8" y="728.5" width="29.9" height="27.5" rx="3" fill="#173c68" stroke="#d4a017" stroke-width="3.0"/>
<rect x="70.2" y="701.5" width="61.2" height="20" rx="6" fill="#fff6d9" stroke="#d4a017" stroke-width="1"/>
<text x="100.8" y="715.5" font-size="11" fill="#6a4800" font-weight="700" text-anchor="middle" font-family="Inter, Segoe UI, Arial, sans-serif">1291.8</text>
<text x="96.8" y="778.0" font-size="10.5" fill="#475569" font-weight="normal" text-anchor="end" font-family="Inter, Segoe UI, Arial, sans-serif" transform="rotate(-24 96.8 778.0)">SGS-4DGS</text>
<rect x="137.4" y="677.4" width="29.9" height="78.6" rx="3" fill="#f28b30" stroke="#ffffff" stroke-width="0.5"/>
<text x="148.4" y="778.0" font-size="10.5" fill="#475569" font-weight="normal" text-anchor="end" font-family="Inter, Segoe UI, Arial, sans-serif" transform="rotate(-24 148.4 778.0)">4DGauss</text>
<rect x="189.0" y="580.1" width="29.9" height="175.9" rx="3" fill="#28a39d" stroke="#ffffff" stroke-width="0.5"/>
<text x="200.0" y="778.0" font-size="10.5" fill="#475569" font-weight="normal" text-anchor="end" font-family="Inter, Segoe UI, Arial, sans-serif" transform="rotate(-24 200.0 778.0)">CEM-4DGS</text>
<rect x="240.6" y="615.8" width="29.9" height="140.2" rx="3" fill="#d45555" stroke="#ffffff" stroke-width="0.5"/>
<text x="251.5" y="778.0" font-size="10.5" fill="#475569" font-weight="normal" text-anchor="end" font-family="Inter, Segoe UI, Arial, sans-serif" transform="rotate(-24 251.5 778.0)">Sparse4DGS</text>
<rect x="292.2" y="682.2" width="29.9" height="73.8" rx="3" fill="#7b63c9" stroke="#ffffff" stroke-width="0.5"/>
<text x="303.1" y="778.0" font-size="10.5" fill="#475569" font-weight="normal" text-anchor="end" font-family="Inter, Segoe UI, Arial, sans-serif" transform="rotate(-24 303.1 778.0)">STGS</text>
<rect x="343.7" y="685.9" width="29.9" height="70.1" rx="3" fill="#4e8f2f" stroke="#ffffff" stroke-width="0.5"/>
<text x="354.7" y="778.0" font-size="10.5" fill="#475569" font-weight="normal" text-anchor="end" font-family="Inter, Segoe UI, Arial, sans-serif" transform="rotate(-24 354.7 778.0)">Swift4D</text>
<rect x="418.5" y="464.0" width="372.5" height="364.0" rx="14" fill="#fbfdff" stroke="#dbe5f0"/>
<text x="436.5" y="495.0" font-size="17" fill="#173c68" font-weight="700" text-anchor="start" font-family="Inter, Segoe UI, Arial, sans-serif">FPS ↑ · log</text>
<line x1="465.5" y1="756.0" x2="775.0" y2="756.0" stroke="#d8e2ee" stroke-dasharray="4 4"/>
<text x="458.5" y="760.0" font-size="11" fill="#64748b" font-weight="normal" text-anchor="end" font-family="Inter, Segoe UI, Arial, sans-serif">34</text>
<line x1="465.5" y1="696.0" x2="775.0" y2="696.0" stroke="#d8e2ee" stroke-dasharray="4 4"/>
<text x="458.5" y="700.0" font-size="11" fill="#64748b" font-weight="normal" text-anchor="end" font-family="Inter, Segoe UI, Arial, sans-serif">66</text>
<line x1="465.5" y1="636.0" x2="775.0" y2="636.0" stroke="#d8e2ee" stroke-dasharray="4 4"/>
<text x="458.5" y="640.0" font-size="11" fill="#64748b" font-weight="normal" text-anchor="end" font-family="Inter, Segoe UI, Arial, sans-serif">130</text>
<line x1="465.5" y1="576.0" x2="775.0" y2="576.0" stroke="#d8e2ee" stroke-dasharray="4 4"/>
<text x="458.5" y="580.0" font-size="11" fill="#64748b" font-weight="normal" text-anchor="end" font-family="Inter, Segoe UI, Arial, sans-serif">253</text>
<line x1="465.5" y1="516.0" x2="775.0" y2="516.0" stroke="#d8e2ee" stroke-dasharray="4 4"/>
<text x="458.5" y="520.0" font-size="11" fill="#64748b" font-weight="normal" text-anchor="end" font-family="Inter, Segoe UI, Arial, sans-serif">495</text>
<rect x="476.3" y="584.5" width="29.9" height="171.5" rx="3" fill="#173c68" stroke="#d4a017" stroke-width="3.0"/>
<rect x="464.8" y="557.5" width="53.0" height="20" rx="6" fill="#fff6d9" stroke="#d4a017" stroke-width="1"/>
<text x="491.3" y="571.5" font-size="11" fill="#6a4800" font-weight="700" text-anchor="middle" font-family="Inter, Segoe UI, Arial, sans-serif">230.2</text>
<text x="487.3" y="778.0" font-size="10.5" fill="#475569" font-weight="normal" text-anchor="end" font-family="Inter, Segoe UI, Arial, sans-serif" transform="rotate(-24 487.3 778.0)">SGS-4DGS</text>
<rect x="527.9" y="645.0" width="29.9" height="111.0" rx="3" fill="#f28b30" stroke="#ffffff" stroke-width="0.5"/>
<text x="538.9" y="778.0" font-size="10.5" fill="#475569" font-weight="normal" text-anchor="end" font-family="Inter, Segoe UI, Arial, sans-serif" transform="rotate(-24 538.9 778.0)">4DGauss</text>
<rect x="579.5" y="726.6" width="29.9" height="29.4" rx="3" fill="#28a39d" stroke="#ffffff" stroke-width="0.5"/>
<text x="590.5" y="778.0" font-size="10.5" fill="#475569" font-weight="normal" text-anchor="end" font-family="Inter, Segoe UI, Arial, sans-serif" transform="rotate(-24 590.5 778.0)">CEM-4DGS</text>
<rect x="631.1" y="648.9" width="29.9" height="107.1" rx="3" fill="#d45555" stroke="#ffffff" stroke-width="0.5"/>
<text x="642.0" y="778.0" font-size="10.5" fill="#475569" font-weight="normal" text-anchor="end" font-family="Inter, Segoe UI, Arial, sans-serif" transform="rotate(-24 642.0 778.0)">Sparse4DGS</text>
<rect x="682.7" y="629.4" width="29.9" height="126.6" rx="3" fill="#7b63c9" stroke="#ffffff" stroke-width="0.5"/>
<text x="693.6" y="778.0" font-size="10.5" fill="#475569" font-weight="normal" text-anchor="end" font-family="Inter, Segoe UI, Arial, sans-serif" transform="rotate(-24 693.6 778.0)">STGS</text>
<rect x="734.2" y="638.5" width="29.9" height="117.5" rx="3" fill="#4e8f2f" stroke="#ffffff" stroke-width="0.5"/>
<text x="745.2" y="778.0" font-size="10.5" fill="#475569" font-weight="normal" text-anchor="end" font-family="Inter, Segoe UI, Arial, sans-serif" transform="rotate(-24 745.2 778.0)">Swift4D</text>
<rect x="809.0" y="464.0" width="372.5" height="364.0" rx="14" fill="#fbfdff" stroke="#dbe5f0"/>
<text x="827.0" y="495.0" font-size="17" fill="#173c68" font-weight="700" text-anchor="start" font-family="Inter, Segoe UI, Arial, sans-serif">Model Size (MB) ↓ · log</text>
<line x1="856.0" y1="756.0" x2="1165.5" y2="756.0" stroke="#d8e2ee" stroke-dasharray="4 4"/>
<text x="849.0" y="760.0" font-size="11" fill="#64748b" font-weight="normal" text-anchor="end" font-family="Inter, Segoe UI, Arial, sans-serif">22</text>
<line x1="856.0" y1="696.0" x2="1165.5" y2="696.0" stroke="#d8e2ee" stroke-dasharray="4 4"/>
<text x="849.0" y="700.0" font-size="11" fill="#64748b" font-weight="normal" text-anchor="end" font-family="Inter, Segoe UI, Arial, sans-serif">50</text>
<line x1="856.0" y1="636.0" x2="1165.5" y2="636.0" stroke="#d8e2ee" stroke-dasharray="4 4"/>
<text x="849.0" y="640.0" font-size="11" fill="#64748b" font-weight="normal" text-anchor="end" font-family="Inter, Segoe UI, Arial, sans-serif">110</text>
<line x1="856.0" y1="576.0" x2="1165.5" y2="576.0" stroke="#d8e2ee" stroke-dasharray="4 4"/>
<text x="849.0" y="580.0" font-size="11" fill="#64748b" font-weight="normal" text-anchor="end" font-family="Inter, Segoe UI, Arial, sans-serif">243</text>
<line x1="856.0" y1="516.0" x2="1165.5" y2="516.0" stroke="#d8e2ee" stroke-dasharray="4 4"/>
<text x="849.0" y="520.0" font-size="11" fill="#64748b" font-weight="normal" text-anchor="end" font-family="Inter, Segoe UI, Arial, sans-serif">538</text>
<rect x="866.8" y="727.6" width="29.9" height="28.4" rx="3" fill="#173c68" stroke="#0b1e33" stroke-width="2.0"/>
<rect x="859.4" y="700.6" width="44.8" height="20" rx="6" fill="#eff5fb" stroke="#0b1e33" stroke-width="1"/>
<text x="881.8" y="714.6" font-size="11" fill="#173c68" font-weight="700" text-anchor="middle" font-family="Inter, Segoe UI, Arial, sans-serif">32.7</text>
<text x="877.8" y="778.0" font-size="10.5" fill="#475569" font-weight="normal" text-anchor="end" font-family="Inter, Segoe UI, Arial, sans-serif" transform="rotate(-24 877.8 778.0)">SGS-4DGS</text>
<rect x="918.4" y="731.2" width="29.9" height="24.8" rx="3" fill="#f28b30" stroke="#d4a017" stroke-width="3.0"/>
<rect x="911.0" y="704.2" width="44.8" height="20" rx="6" fill="#fff6d9" stroke="#d4a017" stroke-width="1"/>
<text x="933.4" y="718.2" font-size="11" fill="#6a4800" font-weight="700" text-anchor="middle" font-family="Inter, Segoe UI, Arial, sans-serif">31.2</text>
<text x="929.4" y="778.0" font-size="10.5" fill="#475569" font-weight="normal" text-anchor="end" font-family="Inter, Segoe UI, Arial, sans-serif" transform="rotate(-24 929.4 778.0)">4DGauss</text>
<rect x="970.0" y="573.8" width="29.9" height="182.2" rx="3" fill="#28a39d" stroke="#ffffff" stroke-width="0.5"/>
<text x="981.0" y="778.0" font-size="10.5" fill="#475569" font-weight="normal" text-anchor="end" font-family="Inter, Segoe UI, Arial, sans-serif" transform="rotate(-24 981.0 778.0)">CEM-4DGS</text>
<rect x="1021.6" y="634.9" width="29.9" height="121.1" rx="3" fill="#d45555" stroke="#ffffff" stroke-width="0.5"/>
<text x="1032.5" y="778.0" font-size="10.5" fill="#475569" font-weight="normal" text-anchor="end" font-family="Inter, Segoe UI, Arial, sans-serif" transform="rotate(-24 1032.5 778.0)">Sparse4DGS</text>
<rect x="1073.2" y="697.7" width="29.9" height="58.3" rx="3" fill="#7b63c9" stroke="#ffffff" stroke-width="0.5"/>
<text x="1084.1" y="778.0" font-size="10.5" fill="#475569" font-weight="normal" text-anchor="end" font-family="Inter, Segoe UI, Arial, sans-serif" transform="rotate(-24 1084.1 778.0)">STGS</text>
<rect x="1124.7" y="651.4" width="29.9" height="104.6" rx="3" fill="#4e8f2f" stroke="#ffffff" stroke-width="0.5"/>
<text x="1135.7" y="778.0" font-size="10.5" fill="#475569" font-weight="normal" text-anchor="end" font-family="Inter, Segoe UI, Arial, sans-serif" transform="rotate(-24 1135.7 778.0)">Swift4D</text>
<rect x="1199.5" y="464.0" width="372.5" height="364.0" rx="14" fill="#fbfdff" stroke="#dbe5f0"/>
<text x="1219.5" y="499.0" font-size="18" fill="#173c68" font-weight="700" text-anchor="start" font-family="Inter, Segoe UI, Arial, sans-serif">Reading the figure</text>
<rect x="1221.5" y="526.0" width="36" height="24" rx="4" fill="#fff6d9" stroke="#d4a017" stroke-width="3"/>
<text x="1271.5" y="543.0" font-size="13" fill="#334155" font-weight="normal" text-anchor="start" font-family="Inter, Segoe UI, Arial, sans-serif">Gold: best displayed value</text>
<rect x="1221.5" y="567.0" width="36" height="24" rx="4" fill="#eff5fb" stroke="#173c68" stroke-width="2"/>
<text x="1271.5" y="584.0" font-size="13" fill="#334155" font-weight="normal" text-anchor="start" font-family="Inter, Segoe UI, Arial, sans-serif">Blue: SGS-4DGS when not first</text>
<text x="1221.5" y="630.0" font-size="13" fill="#5f6f86" font-weight="normal" text-anchor="start" font-family="Inter, Segoe UI, Arial, sans-serif">Quality and tOF are scene averages.</text>
<text x="1221.5" y="654.0" font-size="13" fill="#5f6f86" font-weight="normal" text-anchor="start" font-family="Inter, Segoe UI, Arial, sans-serif">Opt. excludes one-off preprocessing.</text>
<text x="1221.5" y="678.0" font-size="13" fill="#5f6f86" font-weight="normal" text-anchor="start" font-family="Inter, Segoe UI, Arial, sans-serif">FPS is inference-only at the fixed</text>
<text x="1221.5" y="702.0" font-size="13" fill="#5f6f86" font-weight="normal" text-anchor="start" font-family="Inter, Segoe UI, Arial, sans-serif">output resolution stated in the paper.</text>
<text x="1221.5" y="726.0" font-size="13" fill="#5f6f86" font-weight="normal" text-anchor="start" font-family="Inter, Segoe UI, Arial, sans-serif">Sparse4DGS is retrained with sparse</text>
<text x="1221.5" y="750.0" font-size="13" fill="#5f6f86" font-weight="normal" text-anchor="start" font-family="Inter, Segoe UI, Arial, sans-serif">synchronized cameras.</text>
</svg>